<svg width="64" height="64" viewBox="0 0 64 64" fill="none" xmlns="http://www.w3.org/2000/svg">
    <path d="M32 0C23.164 0 16 7.164 16 16C16 24.836 23.164 32 32 32C40.836 32 48 24.836 48 16C48 7.164 40.836 0 32 0ZM32 4C38.627 4 44 9.373 44 16C44 22.627 38.627 28 32 28C25.373 28 20 22.627 20 16C20 9.373 25.373 4 32 4Z" fill="#6366f1"/>
    <path d="M32 36C18.745 36 8 46.745 8 60V64H56V60C56 46.745 45.255 36 32 36ZM32 40C43.046 40 52 48.954 52 60H12C12 48.954 20.954 40 32 40Z" fill="#6366f1"/>
</svg> 