<svg width="64" height="64" viewBox="0 0 64 64" fill="none" xmlns="http://www.w3.org/2000/svg">
    <path d="M48.267 33.067C48.2 25.6 54.4 21.867 54.667 21.667C51.067 16.4 45.467 15.733 43.6 15.667C38.8 15.133 34.133 18.533 31.667 18.533C29.133 18.533 25.333 15.733 21.267 15.8C15.933 15.867 10.933 18.933 8.2 23.733C2.53333 33.533 6.73333 48 12.2 55.933C15 59.8 18.267 64.133 22.533 64C26.733 63.867 28.2 61.333 33.267 61.333C38.267 61.333 39.667 64 44.067 63.933C48.6 63.867 51.467 60 54.2 56.067C57.4 51.533 58.733 47.067 58.8 46.867C58.667 46.8 48.333 42.867 48.267 33.067Z" fill="#6366f1"/>
    <path d="M40.733 10.133C43.067 7.26667 44.667 3.33333 44.267 0C40.933 0.133333 36.867 2.2 34.467 5C32.267 7.53333 30.333 11.533 30.8 14.8C34.533 15.133 38.333 13 40.733 10.133Z" fill="#6366f1"/>
</svg> 